<svg width="32" height="32" viewBox="0 0 32 32" fill="none" xmlns="http://www.w3.org/2000/svg">
<path d="M14 1.1547C15.2376 0.440169 16.7624 0.440169 18 1.1547L27.8564 6.8453C29.094 7.55983 29.8564 8.88034 29.8564 10.3094V21.6906C29.8564 23.1197 29.094 24.4402 27.8564 25.1547L18 30.8453C16.7624 31.5598 15.2376 31.5598 14 30.8453L4.14359 25.1547C2.90599 24.4402 2.14359 23.1197 2.14359 21.6906V10.3094C2.14359 8.88034 2.90599 7.55983 4.14359 6.8453L14 1.1547Z" fill="#0090F0"/>
<g opacity="0.5">
<path fill-rule="evenodd" clip-rule="evenodd" d="M25.2925 15.6716C25.2925 15.7313 25.2917 15.7904 25.2903 15.8487C26.0678 16.6854 26.6316 18.0388 26.6316 19.2055C26.6316 20.6449 25.7733 21.255 24.7145 20.5682C24.6703 20.5395 24.6264 20.5089 24.5829 20.4767L21.7051 18.6099C21.6071 18.5564 21.5081 18.4973 21.4082 18.4325C21.3083 18.3678 21.2094 18.2984 21.1114 18.2248L16.7298 15.3825C16.6502 15.3409 16.5696 15.2937 16.4882 15.2409C15.058 14.3132 13.8987 11.985 13.8987 10.0407C13.8987 8.09646 15.058 7.27239 16.4882 8.20011C16.9092 8.47323 17.3068 8.86773 17.6582 9.33807C18.1048 7.38133 19.6145 6.70782 21.4082 7.87136C23.5534 9.26295 25.2925 12.7552 25.2925 15.6716Z" fill="url(#paint0_linear_2805_47760)"/>
</g>
<path fill-rule="evenodd" clip-rule="evenodd" d="M21.1075 18.6716C21.1075 18.7314 21.1067 18.7904 21.1053 18.8487C21.8827 19.6854 22.4466 21.0388 22.4466 22.2055C22.4466 23.6449 21.5882 24.255 20.5294 23.5682C20.485 23.5394 20.441 23.5087 20.3974 23.4764L17.52 21.6099C17.4221 21.5564 17.3231 21.4973 17.2232 21.4325C17.1233 21.3677 17.0243 21.2984 16.9264 21.2248L12.5447 18.3824C12.4652 18.3409 12.3846 18.2937 12.3032 18.2409C10.873 17.3132 9.71368 14.985 9.71368 13.0407C9.71368 11.0964 10.873 10.2724 12.3032 11.2001C12.7242 11.4732 13.1218 11.8677 13.4732 12.338C13.9198 10.3813 15.4295 9.70782 17.2232 10.8714C19.3684 12.2629 21.1075 15.7552 21.1075 18.6716Z" fill="url(#paint1_linear_2805_47760)"/>
<path fill-rule="evenodd" clip-rule="evenodd" d="M16.3938 21.7595C16.3938 21.8192 16.3931 21.8782 16.3916 21.9365C17.1691 22.7733 17.733 24.1267 17.733 25.2934C17.733 26.7328 16.8746 27.3429 15.8158 26.6561C15.7714 26.6273 15.7274 26.5966 15.6838 26.5643L12.8067 24.698C12.7086 24.6445 12.6095 24.5853 12.5095 24.5204C12.4095 24.4556 12.3104 24.3861 12.2123 24.3124L7.83137 21.4705C7.75174 21.4289 7.67106 21.3817 7.5895 21.3288C6.15936 20.4011 5 18.0729 5 16.1286C5 14.1843 6.15936 13.3603 7.5895 14.288C8.01053 14.5611 8.40809 14.9556 8.75951 15.426C9.20614 13.4692 10.7159 12.7957 12.5095 13.9593C14.6547 15.3508 16.3938 18.8431 16.3938 21.7595Z" fill="white"/>
<defs>
<linearGradient id="paint0_linear_2805_47760" x1="26.4537" y1="9.5" x2="13.5759" y2="6.16545" gradientUnits="userSpaceOnUse">
<stop stop-color="#B8E2FF"/>
<stop offset="1" stop-color="#B8E2FF" stop-opacity="0"/>
</linearGradient>
<linearGradient id="paint1_linear_2805_47760" x1="22.2687" y1="12.5" x2="9.39089" y2="9.16545" gradientUnits="userSpaceOnUse">
<stop stop-color="#B8E2FF"/>
<stop offset="1" stop-color="#B8E2FF" stop-opacity="0"/>
</linearGradient>
</defs>
</svg>
